<svg xmlns="http://www.w3.org/2000/svg" viewBox="0 0 100 100" width="100" height="100">
  <!-- Background rounded square -->
  <rect width="100" height="100" rx="22" fill="#1F2A44"/>
  <!-- Top arc — cream -->
  <path d="M28 12C20 12 14 18 14 26L14 34C14 37 17 39 20 39L46 39C49 39 51 37 52 35L59 20C60 18 59 15 56 15Z" fill="#F2E8DA"/>
  <!-- Teal ribbon -->
  <path d="M13 42C13 37 17 32 22 32L29 32C35 32 40 35 42 40L51 55C55 62 51 70 44 70L38 70C33 70 28 67 26 62L15 45C14 44 13 43 13 42Z" fill="#4FAEAA"/>
  <!-- Silver lower -->
  <path d="M36 73L59 73C61 73 63 75 62 77L55 89C54 91 51 93 48 93L25 93C23 93 21 91 22 89L30 76C31 74 33 73 36 73Z" fill="#C8CCD1"/>
  <!-- Copper accent bottom left -->
  <path d="M14 80C16 76 20 73 24 73L36 73C38 73 39 76 38 78L33 89L12 89C10 89 9 87 10 85Z" fill="#B87333"/>
</svg>
